# xmcd CD database file
#
# Track frame offsets:
#	150
#	2058
#	10274
#	17330
#	25125
#	32571
#	41084
#	52898
#	63578
#	71468
#	81140
#	86741
#	88649
#	96865
#	103921
#	111716
#	119162
#	127675
#	139489
#	150169
#	158059
#	167731
#	173332
#	175240
#	183456
#	190512
#	198307
#	205753
#	214266
#	226080
#	236760
#	244650
#	254322
#
# Disc length: 3463 seconds
#
# Revision: 0
# Processed by: cddbd v1.5.2PL0 Copyright (c) Steve Scherf et al.
# Submitted via: CDex 1.70
#
DISCID=b10d8521
DTITLE=Gordon Goodwin - Big Phat Jazz Duets for Sax
DYEAR=2009
DGENRE=Jazz
TTITLE0=Alto Sax Tuning Note
TTITLE1=The Jazz Police Alto
TTITLE2=La Almeja Pequena Alto
TTITLE3=Gumbo Street Alto
TTITLE4=Count Bubbas Revenge Alto
TTITLE5=El Macho Muchacho Alto
TTITLE6=Act Your Age Alto
TTITLE7=Maynard and Waynard Alto
TTITLE8=Hunting Wabbits Alto
TTITLE9=There's the Rub Alto
TTITLE10=Swingin for the Fences Alto
TTITLE11=Tenor Sax Tuning Note
TTITLE12=The Jazz Police Tenor
TTITLE13=La Almeja Pequena Tenor
TTITLE14=Gumbo Street Tenor
TTITLE15=Count Bubbas Revenge Tenor
TTITLE16=El Macho Muchacho Tenor
TTITLE17=Act Your Age Tenor
TTITLE18=Maynard and Waynard Tenor
TTITLE19=Hunting Wabbits Tenor
TTITLE20=There's the Rub Tenor
TTITLE21=Swingin for the Fences Tenor
TTITLE22=Alto and Tenor Tuning Note
TTITLE23=The Jazz Police Both
TTITLE24=La Almeja Pequena Both
TTITLE25=Gumbo Street Both
TTITLE26=Count Bubbas Revenge Both
TTITLE27=El Macho Muchacho Both
TTITLE28=Act Your Age Both
TTITLE29=Maynard and Waynard Both
TTITLE30=Hunting Wabbits Both
TTITLE31=There's the Rub Both
TTITLE32=Swingin for the Fences Both
EXTD=YEAR: 2009
EXTT0=
EXTT1=
EXTT2=
EXTT3=
EXTT4=
EXTT5=
EXTT6=
EXTT7=
EXTT8=
EXTT9=
EXTT10=
EXTT11=
EXTT12=
EXTT13=
EXTT14=
EXTT15=
EXTT16=
EXTT17=
EXTT18=
EXTT19=
EXTT20=
EXTT21=
EXTT22=
EXTT23=
EXTT24=
EXTT25=
EXTT26=
EXTT27=
EXTT28=
EXTT29=
EXTT30=
EXTT31=
EXTT32=
PLAYORDER=
